<?xml version="1.0" encoding="utf-8"?>
<!-- Generator: Adobe Illustrator 17.1.0, SVG Export Plug-In . SVG Version: 6.00 Build 0)  -->
<!DOCTYPE svg PUBLIC "-//W3C//DTD SVG 1.1//EN" "http://www.w3.org/Graphics/SVG/1.1/DTD/svg11.dtd">
<svg version="1.1" id="Layer_1" xmlns="http://www.w3.org/2000/svg" xmlns:xlink="http://www.w3.org/1999/xlink" x="0px" y="0px"
	 viewBox="0 0 384 337" enable-background="new 0 0 384 337" xml:space="preserve">
<g>
	<path fill="#FFFFFF" d="M126.473,321.456c0-47.858,0-95.569,0-143.588c0.841-0.042,1.632-0.115,2.422-0.115
		c8.83-0.008,17.66-0.046,26.489,0.023c2.238,0.018,4.509,0.196,6.702,0.623c10.591,2.062,16.806,8.744,17.419,20.411
		c0.576,10.952,0.091,21.971-0.231,32.951c-0.078,2.659-1.086,5.394-2.13,7.901c-2.039,4.9-5.713,8.101-10.991,9.296
		c-0.556,0.126-1.094,0.328-1.636,0.511c-0.041,0.014-0.039,0.154-0.077,0.329c0.132,0.111,0.278,0.335,0.467,0.379
		c9.627,2.226,13.253,9.25,14.479,18.155c0.249,1.811,0.391,3.651,0.395,5.478c0.031,15.244,0.02,30.488,0.016,45.732
		c0,0.571-0.055,1.142-0.094,1.896c-8.136,0-16.171,0-24.49,0c0-20.287,0-40.643,0-61.201c-1.47,0-2.664,0-4.12,0
		c0,20.315,0,40.681,0,61.219C142.815,321.456,134.783,321.456,126.473,321.456z M154.923,239.336c0-13.721,0-27.232,0-40.844
		c-1.35,0-2.543,0-3.786,0c0,13.687,0,27.197,0,40.844C152.406,239.336,153.534,239.336,154.923,239.336z"/>
	<path fill="#FFFFFF" d="M221.225,249.548c0.803,0.469,1.046,0.697,1.328,0.764c9.505,2.268,13.11,9.235,14.251,18.055
		c0.362,2.799,0.433,5.649,0.442,8.476c0.043,13.833,0.019,27.667,0.019,41.5c0,0.978,0,1.957,0,3.078c-8.252,0-16.206,0-24.491,0
		c0-20.475,0-40.842,0-61.335c-1.548,0-2.766,0-4.27,0c0,20.479,0,40.847,0,61.364c-8.249,0-16.213,0-24.367,0
		c0-47.767,0-95.546,0-143.363c0.224-0.086,0.45-0.249,0.676-0.249c9.999,0.016,20.013-0.305,29.992,0.159
		c14.125,0.657,21.544,7.801,22.245,21.878c0.525,10.544,0.095,21.154-0.346,31.716c-0.13,3.126-1.419,6.337-2.752,9.246
		c-1.933,4.218-5.407,6.889-10.02,7.933C223.224,248.931,222.534,249.17,221.225,249.548z M212.578,239.415
		c0-13.74,0-27.332,0-40.953c-1.451,0-2.712,0-3.939,0c0,13.772,0,27.298,0,40.953C210.017,239.415,211.219,239.415,212.578,239.415
		z"/>
	<path fill="#FFFFFF" d="M48.868,249.966c0.181,0.073,0.469,0.235,0.779,0.306c7.656,1.748,11.693,6.986,13.385,14.246
		c0.675,2.895,0.993,5.927,1.045,8.904c0.141,7.997,0.051,15.997,0.05,23.996c0,0.583-0.024,1.166-0.043,1.749
		c-0.411,12.854-7.075,20.993-19.865,22.048c-10.985,0.906-22.104,0.188-33.324,0.188c0-47.779,0-95.556,0-143.264
		c0.262-0.153,0.405-0.31,0.547-0.309c11.075,0.081,22.185-0.347,33.213,0.416c10.977,0.759,18.228,7.634,18.933,18.493
		c0.78,12.011,0.297,24.126-0.12,36.18c-0.169,4.88-2.217,9.55-6.261,12.647C54.785,247.42,51.756,248.481,48.868,249.966z
		 M35.57,198.436c0,13.761,0,27.281,0,40.856c1.356,0,2.549,0,3.753,0c0-13.7,0-27.217,0-40.856
		C38.037,198.436,36.906,198.436,35.57,198.436z M35.602,260.147c0,13.684,0,27.252,0,40.831c1.327,0,2.461,0,3.692,0
		c0-13.689,0-27.26,0-40.831C37.97,260.147,36.83,260.147,35.602,260.147z"/>
	<path fill="#FFFFFF" d="M72.401,177.865c15.294,0,30.259,0,45.595,0c1.723,47.833,3.442,95.579,5.17,143.547
		c-7.937,0-15.712,0-23.859,0c-0.287-9.358-0.576-18.794-0.871-28.395c-2.199,0-4.236,0-6.483,0
		c-0.284,9.499-0.565,18.887-0.85,28.439c-7.939,0-15.718,0-23.837,0C68.975,273.644,70.683,225.894,72.401,177.865z M97.84,272.152
		c-0.691-25.461-1.374-50.605-2.056-75.749c-0.397,0.003-0.795,0.007-1.192,0.01c-0.681,25.204-1.362,50.408-2.046,75.739
		C94.399,272.152,95.952,272.152,97.84,272.152z"/>
	<path fill="#FFFFFF" d="M293.719,178.116c-0.703,5.104-1.319,9.628-1.951,14.149c-2.823,20.181-5.64,40.363-8.481,60.542
		c-1.587,11.276-3.223,22.545-4.814,33.82c-0.139,0.984-0.139,1.993-0.14,2.99c-0.01,9.497-0.006,18.995-0.006,28.492
		c0,0.985,0,1.97,0,3.173c-8.027,0-15.814,0-23.902,0c-0.067-0.828-0.206-1.78-0.209-2.732c-0.02-6.415-0.234-12.839,0.035-19.243
		c0.61-14.54-2.571-28.661-4.515-42.909c-3.498-25.645-7.269-51.252-10.923-76.876c-0.056-0.396-0.072-0.798-0.139-1.573
		c1.934,0,3.739-0.006,5.544,0.001c4.915,0.021,9.836,0.195,14.743,0.01c2.457-0.092,3.132,0.838,3.218,3.084
		c0.323,8.404,0.781,16.803,1.172,25.205c0.681,14.641,1.342,29.282,2.056,43.921c0.031,0.637,0.515,1.252,0.787,1.878
		c0.386-0.71,1.074-1.404,1.113-2.132c0.606-11.479,1.133-22.962,1.668-34.445c0.546-11.731,1.084-23.463,1.617-35.194
		c0.052-1.142,0.097-2.181,1.692-2.175C279.265,178.131,286.245,178.116,293.719,178.116z"/>
</g>
<g>
	<path fill="#FFFFFF" d="M74.714,31.09c15.731,0,31.273,0,47.104,0c1.644,41.787,3.283,83.46,4.922,125.133
		c0.326-0.007,0.651-0.015,0.977-0.022c0-41.605,0-83.21,0-125.026c8.434,0,16.47,0,24.745,0c0,47.765,0,95.596,0,143.548
		c-15.609,0-31.163,0-47.09,0c-1.639-41.692-3.279-83.405-4.919-125.119c-0.349,0.01-0.698,0.019-1.047,0.029
		c0,41.631,0,83.262,0,125.051c-8.412,0-16.455,0-24.694,0C74.714,126.931,74.714,79.159,74.714,31.09z"/>
	<path fill="#FFFFFF" d="M297.223,31.088c15.726,0,31.269,0,47.108,0c1.643,41.787,3.281,83.461,4.92,125.135
		c0.324-0.007,0.649-0.015,0.973-0.022c0-41.604,0-83.208,0-125.025c8.496,0,16.59,0,24.837,0c0,47.876,0,95.649,0,143.544
		c-15.693,0-31.246,0-47.177,0c-1.639-41.687-3.279-83.401-4.919-125.116c-0.348,0.01-0.697,0.019-1.045,0.029
		c0,41.63,0,83.26,0,125.05c-8.413,0-16.456,0-24.697,0C297.223,126.933,297.223,79.162,297.223,31.088z"/>
	<path fill="#FFFFFF" d="M181.581,174.743c-8.539,0-16.512,0-24.637,0c0-47.885,0-95.67,0-143.618c15.61,0,31.155,0,47.087,0
		c1.661,41.72,3.322,83.431,4.983,125.143c0.354-0.01,0.708-0.019,1.063-0.029c0-41.645,0-83.289,0-125.105
		c8.416,0,16.449,0,24.635,0c0,47.863,0,95.645,0,143.568c-15.615,0-31.164,0-47.108,0c-1.657-41.689-3.316-83.404-4.974-125.12
		c-0.349,0.01-0.699,0.019-1.048,0.029C181.581,91.255,181.581,132.898,181.581,174.743z"/>
	<path fill="#FFFFFF" d="M243.092,31.125c15.368,0,30.399,0,45.641,0c1.705,47.895,3.404,95.635,5.109,143.55
		c-7.976,0-15.756,0-23.808,0c-0.276-9.409-0.552-18.788-0.834-28.389c-2.092,0-4.119,0-6.531,0
		c-0.289,9.387-0.579,18.82-0.874,28.4c-8.007,0-15.787,0-23.863,0C239.653,126.802,241.371,78.999,243.092,31.125z
		 M268.457,125.329c0.425-15.401-1.731-74.491-3.111-76.068c-0.699,25.619-1.387,50.824-2.08,76.222c1.456,0,2.53,0.014,3.603-0.006
		C267.351,125.468,267.831,125.39,268.457,125.329z"/>
	<path fill="#FFFFFF" d="M10.895,174.694c0-47.92,0-95.63,0-143.537c10.174,0,20.283,0,30.602,0c0,6.686,0,13.368,0,20.342
		c-1.937,0-3.813,0-5.864,0c0,13.804,0,27.319,0,41.117c1.947,0,3.825,0,5.886,0c0,6.965,0,13.647,0,20.589
		c-1.988,0-3.866,0-6.012,0c0,20.618,0,40.979,0,61.488C27.203,174.694,19.169,174.694,10.895,174.694z"/>
	<path fill="#FFFFFF" d="M45.971,31.081c8.114,0,16.078,0,24.235,0c0,47.862,0,95.636,0,143.586c-7.983,0-16.018,0-24.235,0
		C45.971,126.921,45.971,79.143,45.971,31.081z"/>
	<path fill="#FFFFFF" d="M256.23,26.705c1.342-6.705,2.568-12.975,3.902-19.221c0.111-0.52,0.951-1.258,1.461-1.264
		c6.646-0.085,13.294-0.057,20.236-0.057c-0.204,0.859-0.273,1.483-0.497,2.045c-2.218,5.567-4.421,11.14-6.744,16.662
		c-0.315,0.75-1.257,1.736-1.933,1.754C267.343,26.77,262.025,26.705,256.23,26.705z"/>
</g>
</svg>
